# xmcd CD database file
#
# Track frame offsets:
#	150
#	24192
#	60400
#	77415
#	97497
#	111048
#	144354
#	166648
#	174276
#
# Disc length: 2533 seconds
#
# Revision: 0
# Processed by: cddbd v1.5.2PL0 Copyright (c) Steve Scherf et al.
# Submitted via: CDex 1.51
#
DISCID=5f09e309
DTITLE=middle 9 - SEA THAT HAS BECOME KNOWN
DYEAR=2008
DGENRE=Jazz
TTITLE0=Island pull out
TTITLE1=Liam
TTITLE2=Fix
TTITLE3=Marsupial
TTITLE4=Replique Tableau
TTITLE5=PAPRIKA
TTITLE6=Tonotopy the bamboo coral
TTITLE7=Shu Shu
TTITLE8=After it pause
EXTD=YEAR: 2008
EXTT0=
EXTT1=
EXTT2=
EXTT3=
EXTT4=
EXTT5=
EXTT6=
EXTT7=
EXTT8=
PLAYORDER=
